<svg width="18" height="18" viewBox="0 0 18 18" fill="none" xmlns="http://www.w3.org/2000/svg">
<g id="ig">
<g id="Group">
<path id="Vector" d="M8.99993 11.7147C10.499 11.7147 11.7142 10.4995 11.7142 9.00042C11.7142 7.50136 10.499 6.28613 8.99993 6.28613C7.50087 6.28613 6.28564 7.50136 6.28564 9.00042C6.28564 10.4995 7.50087 11.7147 8.99993 11.7147Z" fill="#808080"/>
<path id="Vector_2" d="M12.392 0.857422H5.60625C2.98765 0.857422 0.856934 2.98882 0.856934 5.6081V12.3938C0.856934 15.0124 2.98833 17.1431 5.60761 17.1431H12.3933C15.0119 17.1431 17.1426 15.0117 17.1426 12.3925V5.60674C17.1426 2.98814 15.0113 0.857422 12.392 0.857422ZM8.99979 13.0717C6.7544 13.0717 4.92836 11.2457 4.92836 9.00028C4.92836 6.75489 6.7544 4.92885 8.99979 4.92885C11.2452 4.92885 13.0712 6.75489 13.0712 9.00028C13.0712 11.2457 11.2452 13.0717 8.99979 13.0717ZM13.7498 4.92885C13.3752 4.92885 13.0712 4.62485 13.0712 4.25028C13.0712 3.87571 13.3752 3.57171 13.7498 3.57171C14.1244 3.57171 14.4284 3.87571 14.4284 4.25028C14.4284 4.62485 14.1244 4.92885 13.7498 4.92885Z" fill="#808080"/>
</g>
</g>
</svg>
