<svg width="294" height="290" viewBox="0 0 294 290" fill="none" xmlns="http://www.w3.org/2000/svg">
<path d="M161.909 1.78183C183.044 -2.73207 204.977 4.42066 219.388 20.5263L248.869 53.475L278.485 86.3024C292.962 102.349 297.734 124.92 290.992 145.453L277.198 187.459L263.576 229.521C256.918 250.081 239.757 265.5 218.604 269.927L175.329 278.984L132.091 288.218C110.956 292.732 89.0229 285.579 74.6122 269.474L45.1311 236.525L15.5151 203.698C1.03851 187.651 -3.7338 165.08 3.00876 144.547L16.8026 102.541L30.424 60.4795C37.0823 39.9192 54.2435 24.5005 75.3967 20.0734L118.672 11.0163L161.909 1.78183Z" fill="#101010"/>
</svg>
