<svg width="18" height="18" viewBox="0 0 18 18" fill="none" xmlns="http://www.w3.org/2000/svg">
<g id="telegram" clip-path="url(#clip0_536_7234)">
<g id="Group">
<path id="Vector" d="M17.5364 2.23341C17.5227 2.17014 17.4923 2.11167 17.4486 2.06395C17.4048 2.01623 17.3492 1.98098 17.2873 1.9618C17.0622 1.9174 16.8294 1.93405 16.6129 2.01001C16.6129 2.01001 1.59304 7.40841 0.735358 8.00626C0.550001 8.13484 0.488394 8.2093 0.457858 8.29769C0.309465 8.72305 0.771251 8.91055 0.771251 8.91055L4.64232 10.1722C4.70771 10.1835 4.77483 10.1794 4.83839 10.1604C5.71911 9.6043 13.6986 4.56537 14.1598 4.39609C14.2321 4.37412 14.2857 4.39609 14.2739 4.44966C14.0854 5.09573 7.19447 11.2195 7.15643 11.257C7.13794 11.2721 7.12341 11.2916 7.11408 11.3136C7.10475 11.3356 7.1009 11.3596 7.10286 11.3834L6.74286 15.1607C6.74286 15.1607 6.59179 16.3393 7.76822 15.1607C8.60232 14.3255 9.40268 13.6345 9.80393 13.2986C11.1352 14.2173 12.5677 15.2336 13.1854 15.7629C13.289 15.8635 13.4119 15.9423 13.5466 15.9944C13.6814 16.0465 13.8252 16.0709 13.9696 16.0661C14.5589 16.0436 14.7196 15.3991 14.7196 15.3991C14.7196 15.3991 17.4561 4.38751 17.5482 2.91162C17.5568 2.76698 17.5691 2.6743 17.5702 2.57519C17.5751 2.46024 17.5637 2.34518 17.5364 2.23341Z" fill="#808080"/>
</g>
</g>
<defs>
<clipPath id="clip0_536_7234">
<rect width="17.1429" height="17.1429" fill="white" transform="translate(0.428467 0.428711)"/>
</clipPath>
</defs>
</svg>
